<svg width="70" height="70" viewBox="0 0 70 70" fill="none" xmlns="http://www.w3.org/2000/svg">
<g clip-path="url(#clip0_1_533)">
<g filter="url(#filter0_d_1_533)">
<path d="M66.9614 48.6908L66.9627 48.692C67.2228 48.9522 67.2229 49.374 66.963 49.6343C66.9629 49.6345 66.9628 49.6346 66.9627 49.6347L63.6551 52.9236L63.655 52.9237C63.5317 53.0463 63.3655 53.1159 63.1917 53.1176C63.0158 53.1154 62.8478 53.0436 62.7244 52.9176L62.7219 52.9151L60.9322 51.115L60.6688 50.85L60.34 51.0275C55.682 53.543 50.4723 54.8629 45.1783 54.8688C42.9717 54.8633 40.7712 54.6324 38.6116 54.1795L38.009 54.0531V54.6688V60.6667V61.1667H38.509H52.5084C55.4527 61.1701 57.8388 63.5563 57.8423 66.5006V68.8333C57.8423 69.2015 57.5438 69.5 57.1756 69.5H3.50895C3.1408 69.5 2.84229 69.2015 2.84229 68.8333V66.5003C2.84591 63.5561 5.23199 61.1701 8.17621 61.1667H22.1756H22.6756V60.6667V47.1349C22.678 46.7636 22.7135 46.3931 22.7815 46.0279L22.854 45.6385L22.4916 45.4788C22.4282 45.4508 22.3701 45.4124 22.3199 45.3653C12.3116 35.2732 10.1076 19.8108 16.8982 7.32404L17.0754 6.99825L16.815 6.73415L15.0347 4.92815L15.0347 4.92814L15.0322 4.92567C14.7721 4.66548 14.772 4.24379 15.0318 3.98342C15.0319 3.98328 15.0321 3.98314 15.0322 3.983L18.3398 0.694052L18.3399 0.694005C18.4632 0.571345 18.6294 0.50179 18.8033 0.500019C18.9792 0.502297 19.1472 0.574124 19.2705 0.700019L19.2731 0.702634L36.9715 18.4931L37.1439 18.6664L37.3865 18.6368L48.2365 17.3126L48.8563 17.237L48.647 16.6487C48.4797 16.1786 48.3972 15.6826 48.4031 15.1835C48.4307 12.8516 50.3435 10.9835 52.6754 11.011C55.0074 11.0387 56.8755 12.9515 56.8479 15.2834C56.8202 17.6154 54.9075 19.4834 52.5755 19.4559V19.4558H52.5696H52.5574C52.0513 19.452 51.55 19.3557 51.0785 19.1716L50.5249 18.9554L50.4066 19.5378L48.3568 29.6342L48.3036 29.8962L48.4919 30.0859L66.9614 48.6908ZM50.572 13.2803L49.713 14.1348H49.987C49.8285 14.4902 49.7433 14.8778 49.7413 15.2745C49.7331 16.8394 50.9952 18.1143 52.5599 18.1225H52.5625H52.5694C52.5694 18.1225 52.5694 18.1225 52.5695 18.1225C53.3185 18.1226 54.0371 17.8262 54.5681 17.298C55.6775 16.1946 55.6825 14.4006 54.5789 13.2911C53.4755 12.1817 51.6815 12.1767 50.572 13.2803ZM48.6683 21.4005L48.9971 19.7822L47.8258 20.9464L43.9455 24.8034L43.5908 25.1559L43.9434 25.5105L46.5147 28.097L47.1733 28.7595L47.3593 27.844L48.6683 21.4005ZM47.2055 19.6828L48.2389 18.6554L46.7924 18.8318L39.3432 19.7407L38.3281 19.8645L39.0493 20.5896L42.2985 23.8563L42.651 24.2107L43.0055 23.8583L47.2055 19.6828ZM56.009 68.1667H56.509V67.6667V66.5C56.509 64.2908 54.7181 62.5 52.509 62.5H8.17562C5.96645 62.5 4.17562 64.2908 4.17562 66.5V67.6667V68.1667H4.67562H56.009ZM36.6756 58.3333V57.8333H36.1756H24.509H24.009V58.3333V60.6667V61.1667H24.509H36.1756H36.6756V60.6667V58.3333ZM24.009 56V56.5H24.509H36.1756H36.6756V56V47.1333C36.6756 43.9687 33.773 41.5 30.3423 41.5C26.9116 41.5 24.009 43.9687 24.009 47.1333V56ZM38.009 52.29V52.6897L38.3989 52.7777C45.3894 54.3552 52.7114 53.4404 59.0987 50.1912L59.7106 49.8798L59.2265 49.393L18.5351 8.46819L18.0501 7.98041L17.7358 8.59226C11.748 20.248 13.7798 34.4151 22.8024 43.9181L23.2469 44.3863L23.589 43.8387C25.0391 41.5176 27.598 40.1247 30.3346 40.1666L30.3346 40.1667H30.3423C34.6126 40.1667 38.009 43.3335 38.009 47.1333V52.29ZM62.8492 51.1469L63.2017 51.5013L63.5562 51.149L65.2117 49.504L65.5665 49.1515L65.2139 48.7968L36.5429 19.958C36.5291 19.9414 36.51 19.9204 36.4864 19.8996C36.483 19.8966 36.4793 19.8934 36.4753 19.8901L19.1468 2.46378L18.7939 2.10886L18.4394 2.46215L16.7885 4.10715L16.4341 4.46033L16.7875 4.81451L18.4377 6.46816L18.4384 6.46884L61.2053 49.4937L61.2054 49.4937L62.8492 51.1469Z" fill="#212121" stroke="black"/>
<path d="M30.3318 51.3333H30.3423C32.2753 51.3362 33.8446 49.7716 33.8475 47.8386C33.8505 45.9055 32.2858 44.3362 30.3528 44.3333M30.3318 51.3333L30.3325 50.8333L30.3423 50.8333H30.343C31.9999 50.8358 33.345 49.4947 33.3475 47.8378C33.35 46.1811 32.0091 44.836 30.3524 44.8333M30.3318 51.3333C28.3988 51.3304 26.8341 49.7611 26.837 47.8281C26.84 45.895 28.4093 44.3304 30.3423 44.3333H30.3528M30.3318 51.3333V50.8333H30.3322C28.6755 50.8307 27.3345 49.4856 27.337 47.8288C27.3395 46.1719 28.6847 44.8308 30.3415 44.8333H30.3423H30.3524M30.3524 44.8333H30.3528V44.3333M30.3524 44.8333C30.3523 44.8333 30.3521 44.8333 30.352 44.8333L30.3528 44.3333M31.5221 49.015L32.3811 48.1605H31.9704C31.9913 48.0563 32.0023 47.9497 32.0028 47.8419C32.0076 46.9214 31.2653 46.1715 30.3449 46.1667L30.3449 46.1666L30.3397 46.1667C29.9022 46.169 29.4832 46.3431 29.173 46.6516L29.1729 46.6518C28.8607 46.9625 28.684 47.3841 28.6818 47.8247C28.677 48.7452 29.4193 49.4952 30.3397 49.5L30.3404 49.5C30.7831 49.5017 31.2083 49.3271 31.5221 49.015Z" fill="#2196F3" stroke="black"/>
</g>
</g>
<defs>
<filter id="filter0_d_1_533" x="-1.65771" y="0" width="73.3156" height="78" filterUnits="userSpaceOnUse" color-interpolation-filters="sRGB">
<feFlood flood-opacity="0" result="BackgroundImageFix"/>
<feColorMatrix in="SourceAlpha" type="matrix" values="0 0 0 0 0 0 0 0 0 0 0 0 0 0 0 0 0 0 127 0" result="hardAlpha"/>
<feOffset dy="4"/>
<feGaussianBlur stdDeviation="2"/>
<feComposite in2="hardAlpha" operator="out"/>
<feColorMatrix type="matrix" values="0 0 0 0 0 0 0 0 0 0 0 0 0 0 0 0 0 0 0.25 0"/>
<feBlend mode="normal" in2="BackgroundImageFix" result="effect1_dropShadow_1_533"/>
<feBlend mode="normal" in="SourceGraphic" in2="effect1_dropShadow_1_533" result="shape"/>
</filter>
<clipPath id="clip0_1_533">
<rect width="70" height="70" fill="white"/>
</clipPath>
</defs>
</svg>
